<svg width="26" height="26" fill="none" xmlns="http://www.w3.org/2000/svg"><path d="M12.5 19.7h-1a.957.957 0 01-.707-.322 1.16 1.16 0 01-.293-.778v-7.7H8a.957.957 0 01-.707-.322A1.16 1.16 0 017 9.8V8.7c0-.292.106-.571.293-.777A.957.957 0 018 7.6h2.5V5.4c0-.292.106-.571.293-.777A.957.957 0 0111.5 4.3h1c.265 0 .52.116.707.323.187.206.293.485.293.777v2.2H16c.265 0 .52.116.707.323.187.206.293.485.293.777v1.1c0 .292-.106.571-.293.777A.957.957 0 0116 10.9h-2.5v7.7c0 .292-.106.571-.293.777a.957.957 0 01-.707.323zM8 8.7v1.1h3.5v8.8h1V9.8H16V8.7h-3.5V5.4h-1v3.3H8z" fill="#10008C"/><g filter="url(#prefix__filter0_d)"><path d="M6 5.4c0-.583.21-1.143.586-1.556A1.912 1.912 0 018 3.2c.265 0 .52-.116.707-.322C8.895 2.672 9 2.392 9 2.1c0-.292-.105-.572-.293-.778A.956.956 0 008 1c-1.06 0-2.078.464-2.828 1.289S4 4.233 4 5.4v3.3c0 .583-.21 1.143-.586 1.556A1.912 1.912 0 012 10.9a.956.956 0 00-.707.322A1.158 1.158 0 001 12c0 .292.105.572.293.778A.956.956 0 002 13.1c.53 0 1.04.232 1.414.644.375.413.586.973.586 1.556v3.3c0 1.167.421 2.286 1.172 3.111C5.922 22.536 6.939 23 8 23c.265 0 .52-.116.707-.322.188-.207.293-.486.293-.778 0-.292-.105-.572-.293-.778A.956.956 0 008 20.8c-.53 0-1.04-.232-1.414-.644A2.316 2.316 0 016 18.6v-3.3a4.773 4.773 0 00-.366-1.814A4.39 4.39 0 004.62 12a4.39 4.39 0 001.014-1.486c.238-.57.363-1.188.366-1.814V5.4zm16 5.5c-.53 0-1.04-.232-1.414-.644A2.316 2.316 0 0120 8.7V5.4c0-1.167-.421-2.286-1.172-3.111C18.078 1.464 17.061 1 16 1a.956.956 0 00-.707.322A1.158 1.158 0 0015 2.1c0 .292.105.572.293.778A.956.956 0 0016 3.2c.53 0 1.04.232 1.414.644.375.413.586.973.586 1.556v3.3c.003.626.128 1.245.366 1.814A4.39 4.39 0 0019.38 12a4.39 4.39 0 00-1.014 1.486A4.772 4.772 0 0018 15.3v3.3c0 .583-.21 1.143-.586 1.556A1.912 1.912 0 0116 20.8a.956.956 0 00-.707.322A1.158 1.158 0 0015 21.9c0 .292.105.572.293.778A.956.956 0 0016 23c1.06 0 2.078-.464 2.828-1.289S20 19.767 20 18.6v-3.3c0-.584.21-1.143.586-1.556A1.912 1.912 0 0122 13.1c.265 0 .52-.116.707-.322.188-.207.293-.486.293-.778 0-.292-.105-.572-.293-.778A.956.956 0 0022 10.9z" fill="#10008C"/></g><defs><filter id="prefix__filter0_d" x="0" y="0" width="26" height="26" filterUnits="userSpaceOnUse" color-interpolation-filters="sRGB"><feFlood flood-opacity="0" result="BackgroundImageFix"/><feColorMatrix in="SourceAlpha" values="0 0 0 0 0 0 0 0 0 0 0 0 0 0 0 0 0 0 127 0"/><feOffset dx="1" dy="1"/><feGaussianBlur stdDeviation="1"/><feColorMatrix values="0 0 0 0 0 0 0 0 0 0 0 0 0 0 0 0 0 0 0.48 0"/><feBlend in2="BackgroundImageFix" result="effect1_dropShadow"/><feBlend in="SourceGraphic" in2="effect1_dropShadow" result="shape"/></filter></defs></svg>