<svg width="26" height="26" viewBox="0 0 26 26" fill="none" xmlns="http://www.w3.org/2000/svg">
<path d="M12.5 19.7H11.5C11.2349 19.6997 10.9807 19.5837 10.7932 19.3775C10.6057 19.1713 10.5003 18.8917 10.5 18.6V10.9H8C7.73486 10.8997 7.48066 10.7837 7.29319 10.5775C7.10571 10.3713 7.00026 10.0917 7 9.8V8.7C7.00026 8.40835 7.10571 8.12873 7.29319 7.92251C7.48066 7.71628 7.73486 7.60029 8 7.6H10.5V5.4C10.5003 5.10835 10.6057 4.82873 10.7932 4.62251C10.9807 4.41628 11.2349 4.30029 11.5 4.3H12.5C12.7651 4.30029 13.0193 4.41628 13.2068 4.62251C13.3943 4.82873 13.4997 5.10835 13.5 5.4V7.6H16C16.2651 7.60029 16.5193 7.71628 16.7068 7.92251C16.8943 8.12873 16.9997 8.40835 17 8.7V9.8C16.9997 10.0917 16.8943 10.3713 16.7068 10.5775C16.5193 10.7837 16.2651 10.8997 16 10.9H13.5V18.6C13.4997 18.8917 13.3943 19.1713 13.2068 19.3775C13.0193 19.5837 12.7651 19.6997 12.5 19.7ZM8 8.7V9.8H11.5V18.6H12.5V9.8H16V8.7H12.5V5.4H11.5V8.7H8Z" fill="#10008C"/>
<g filter="url(#filter0_d)">
<path d="M6 5.4C6 4.81652 6.21071 4.25695 6.58579 3.84437C6.96086 3.43179 7.46957 3.2 8 3.2C8.26522 3.2 8.51957 3.08411 8.70711 2.87782C8.89464 2.67153 9 2.39174 9 2.1C9 1.80826 8.89464 1.52847 8.70711 1.32218C8.51957 1.11589 8.26522 1 8 1C6.93913 1 5.92172 1.46357 5.17157 2.28873C4.42143 3.11389 4 4.23305 4 5.4V8.7C4 9.28348 3.78929 9.84305 3.41421 10.2556C3.03914 10.6682 2.53043 10.9 2 10.9C1.73478 10.9 1.48043 11.0159 1.29289 11.2222C1.10536 11.4285 1 11.7083 1 12C1 12.2917 1.10536 12.5715 1.29289 12.7778C1.48043 12.9841 1.73478 13.1 2 13.1C2.53043 13.1 3.03914 13.3318 3.41421 13.7444C3.78929 14.1569 4 14.7165 4 15.3V18.6C4 19.767 4.42143 20.8861 5.17157 21.7113C5.92172 22.5364 6.93913 23 8 23C8.26522 23 8.51957 22.8841 8.70711 22.6778C8.89464 22.4715 9 22.1917 9 21.9C9 21.6083 8.89464 21.3285 8.70711 21.1222C8.51957 20.9159 8.26522 20.8 8 20.8C7.46957 20.8 6.96086 20.5682 6.58579 20.1556C6.21071 19.7431 6 19.1835 6 18.6V15.3C5.99679 14.6736 5.87201 14.0551 5.63403 13.486C5.39604 12.9169 5.05032 12.4103 4.62 12C5.05032 11.5897 5.39604 11.0831 5.63403 10.514C5.87201 9.94486 5.99679 9.32642 6 8.7V5.4ZM22 10.9C21.4696 10.9 20.9609 10.6682 20.5858 10.2556C20.2107 9.84305 20 9.28348 20 8.7V5.4C20 4.23305 19.5786 3.11389 18.8284 2.28873C18.0783 1.46357 17.0609 1 16 1C15.7348 1 15.4804 1.11589 15.2929 1.32218C15.1054 1.52847 15 1.80826 15 2.1C15 2.39174 15.1054 2.67153 15.2929 2.87782C15.4804 3.08411 15.7348 3.2 16 3.2C16.5304 3.2 17.0391 3.43179 17.4142 3.84437C17.7893 4.25695 18 4.81652 18 5.4V8.7C18.0032 9.32642 18.128 9.94486 18.366 10.514C18.604 11.0831 18.9497 11.5897 19.38 12C18.9497 12.4103 18.604 12.9169 18.366 13.486C18.128 14.0551 18.0032 14.6736 18 15.3V18.6C18 19.1835 17.7893 19.7431 17.4142 20.1556C17.0391 20.5682 16.5304 20.8 16 20.8C15.7348 20.8 15.4804 20.9159 15.2929 21.1222C15.1054 21.3285 15 21.6083 15 21.9C15 22.1917 15.1054 22.4715 15.2929 22.6778C15.4804 22.8841 15.7348 23 16 23C17.0609 23 18.0783 22.5364 18.8284 21.7113C19.5786 20.8861 20 19.767 20 18.6V15.3C20 14.7165 20.2107 14.1569 20.5858 13.7444C20.9609 13.3318 21.4696 13.1 22 13.1C22.2652 13.1 22.5196 12.9841 22.7071 12.7778C22.8946 12.5715 23 12.2917 23 12C23 11.7083 22.8946 11.4285 22.7071 11.2222C22.5196 11.0159 22.2652 10.9 22 10.9Z" fill="#10008C"/>
</g>
<defs>
<filter id="filter0_d" x="0" y="0" width="26" height="26" filterUnits="userSpaceOnUse" color-interpolation-filters="sRGB">
<feFlood flood-opacity="0" result="BackgroundImageFix"/>
<feColorMatrix in="SourceAlpha" type="matrix" values="0 0 0 0 0 0 0 0 0 0 0 0 0 0 0 0 0 0 127 0"/>
<feOffset dx="1" dy="1"/>
<feGaussianBlur stdDeviation="1"/>
<feColorMatrix type="matrix" values="0 0 0 0 0 0 0 0 0 0 0 0 0 0 0 0 0 0 0.48 0"/>
<feBlend mode="normal" in2="BackgroundImageFix" result="effect1_dropShadow"/>
<feBlend mode="normal" in="SourceGraphic" in2="effect1_dropShadow" result="shape"/>
</filter>
</defs>
</svg>
